<svg xmlns="http://www.w3.org/2000/svg" viewBox="0 0 203.88 203.75"><defs><style>.cls-1{fill:#fff;}</style></defs><title>logo</title><g id="OBJECTS"><path class="cls-1" d="M48.15,46.71c1.32-1.46.68-3.56-1.2-5.26s-4-2.11-5.3-.62-.71,3.59,1.16,5.28S46.84,48.16,48.15,46.71Z"/><path class="cls-1" d="M65.77,28.65l2.54-1.29-2-2.09c-.55-.59-1.19-1.34-1.71-1.94h0c.18.78.46,1.74.61,2.51Z"/><path class="cls-1" d="M65.1,172.82a3.21,3.21,0,0,0-.71-.34l-2.53,4.29a3.09,3.09,0,0,0,.5.33,2.37,2.37,0,0,0,3.59-1A2.2,2.2,0,0,0,65.1,172.82Z"/><path class="cls-1" d="M95.72,183a3.48,3.48,0,0,0-.79,0l-.44,5a3.24,3.24,0,0,0,.59.08,2.37,2.37,0,0,0,2.83-2.42A2.2,2.2,0,0,0,95.72,183Z"/><path class="cls-1" d="M136,32.64c1.71,1,3.63-.11,4.88-2.31,1.16-2,1.21-4.33-.54-5.32s-3.66.09-4.9,2.29S134.27,31.67,136,32.64Z"/><path class="cls-1" d="M152.49,39.28c1.54-1.79,2-4,.5-5.33s-3.61-.6-5.26,1.31-1.94,4.08-.46,5.35S150.85,41.19,152.49,39.28Z"/><path class="cls-1" d="M78,21.7c1.39-.43,2-1.38,1.66-2.47s-1.29-1.48-2.57-1.08a5,5,0,0,0-1.23.48l1,3.4Z"/><path class="cls-1" d="M106.63,23.56c2,.15,3.24-1.64,3.45-4.16.19-2.34-.74-4.43-2.74-4.59s-3.27,1.63-3.48,4.15S104.69,23.4,106.63,23.56Z"/><path class="cls-1" d="M162.13,49.86a3.74,3.74,0,0,0,.68-5.77,6.27,6.27,0,0,0-.91-1l-6.66,5.29a5.19,5.19,0,0,0,.59.83C157.47,51.34,159.7,51.79,162.13,49.86Z"/><path class="cls-1" d="M139,173.82a3,3,0,0,0-.65.45l2.51,4.31a3.8,3.8,0,0,0,.53-.27,2.37,2.37,0,0,0,.91-3.61A2.19,2.19,0,0,0,139,173.82Z"/><path class="cls-1" d="M109.27,183a2.92,2.92,0,0,0-.77.12l.18,2.08.68-.06c.85-.07,1.32-.54,1.26-1.21S110.06,183,109.27,183Z"/><path class="cls-1" d="M101.94-.06A101.94,101.94,0,1,0,203.88,101.88,101.94,101.94,0,0,0,101.94-.06Zm68.18,54.55a3.55,3.55,0,0,0-1.44-1.36l1.5-1.6a6.45,6.45,0,0,1,2.27,2.38c1.25,2.19.61,3.9-.78,4.69a4.81,4.81,0,0,1-3.63.18,3.45,3.45,0,0,0-2.57.35l-.3.17-1.26-2.2.42-.27a4.19,4.19,0,0,1,3.17-.51,3.76,3.76,0,0,0,2.31,0C170.39,55.94,170.58,55.33,170.12,54.49Zm-5.57,47.39a62.61,62.61,0,1,1-62.61-62.61A62.61,62.61,0,0,1,164.55,101.88ZM161.33,58a1.71,1.71,0,1,1-.68,2.35A1.66,1.66,0,0,1,161.33,58Zm3.06-15.54a8.38,8.38,0,0,1,2.21,5,5.81,5.81,0,0,1-2.48,4.76,6.65,6.65,0,0,1-5.44,1.61,9.24,9.24,0,0,1-5-3.62,24.79,24.79,0,0,1-1.91-2.71l10-7.93A26,26,0,0,1,164.39,42.45Zm-9.84-10.23c3,2.58,2.69,6.25.34,9-2.79,3.25-6.39,3.54-9.26,1.07s-2.7-6.16-.27-9S151.68,29.76,154.55,32.22Zm-13-9.21c3.44,2,3.83,5.62,2.05,8.76-2.12,3.72-5.6,4.69-8.88,2.82s-3.83-5.53-2-8.76C134.62,22.44,138.22,21.14,141.51,23Zm-22.06-1.8c1.41-4.09,5.16-5.42,9.16-4.06a9.21,9.21,0,0,1,3.18,1.74l-1.34,2a6.94,6.94,0,0,0-2.65-1.49,3.92,3.92,0,0,0-5.4,2.6,3.9,3.9,0,0,0,2.48,5.35,4.31,4.31,0,0,0,1.39.29l.89-2.59-1.89-.64.74-2.17,4.55,1.54-2.21,6.48a14.33,14.33,0,0,1-4.31-.69,7.26,7.26,0,0,1-4.4-3.33A6.59,6.59,0,0,1,119.45,21.21Zm-18.66-2.44c.32-3.88,3-6.58,6.8-6.28,3.94.32,5.86,3.47,5.56,7.06-.34,4.27-3.09,6.62-6.86,6.32S100.49,22.48,100.79,18.77Zm-6.71-6.23a7.44,7.44,0,0,1,3.33.36L97,15.3a6,6,0,0,0-2.72-.37c-1.26.11-1.82.76-1.76,1.41.08.83.81,1.13,2.55,1.61,2.34.64,3.49,1.74,3.66,3.56.19,2.17-1.28,4.16-4.8,4.48a8.36,8.36,0,0,1-3.71-.48l.38-2.45a7.4,7.4,0,0,0,3.29.51c1.33-.12,2-.74,1.91-1.58s-.73-1.21-2.32-1.61c-2.2-.58-3.72-1.64-3.88-3.52C89.38,14.65,91.07,12.81,94.08,12.54Zm-17.91,3.6a6.57,6.57,0,0,1,4.29-.25,3.3,3.3,0,0,1,2,2.27,3.45,3.45,0,0,1-1.24,3.71l0,.05a3.25,3.25,0,0,1,2.35,1.8,37.05,37.05,0,0,0,2.07,3.21l-2.85.88A17.28,17.28,0,0,1,81,25.18c-.83-1.46-1.48-1.71-2.64-1.37l-.82.25,1.5,4.88-2.76.85L72.54,17.54A25.34,25.34,0,0,1,76.17,16.14ZM65.42,20.46l9.46,9.77-2.81,1.43-2.39-2.52L66.39,30.8l.69,3.4L64.4,35.55,62,22.19ZM57.14,25l1.39,2-4.05,2.84,1.7,2.43L60,29.53l1.37,2-3.78,2.66,3,4.27L58.19,40.1,50.71,29.47ZM40,39.22c2.66-2.93,6.33-2.53,9-.11,3.17,2.87,3.37,6.47.83,9.28s-6.23,2.54-9,0S37.41,42,40,39.22ZM31.77,49.91a7.3,7.3,0,0,1,2.32-2.42l1.64,1.81a5.8,5.8,0,0,0-2,1.92c-.68,1.07-.51,1.9,0,2.26s1.38,0,2.83-1c1.93-1.47,3.51-1.71,5.05-.72,1.84,1.17,2.52,3.55.62,6.53a8.3,8.3,0,0,1-2.65,2.64L38,59.11a7.37,7.37,0,0,0,2.42-2.29c.72-1.13.62-2-.09-2.48s-1.4-.17-2.69.85c-1.8,1.39-3.57,1.94-5.17.92C30.56,54.92,30.15,52.45,31.77,49.91Zm6.07,104.66a84.16,84.16,0,0,1-12.4-87.25l4.34-1.23a80.7,80.7,0,0,0,11.7,87.45Zm10.29,13.27L50,165c.43-.65.84-1.25,1.38-1.94h0c-.7.52-1.29.95-2,1.37l-2.8,1.85L45.21,165l4-6.72,1.32,1.29-1.77,2.64c-.51.78-1.09,1.59-1.53,2.23h0c.67-.5,1.44-1,2.24-1.58l2.62-1.77,1.31,1.27-1.8,2.73c-.5.76-1,1.43-1.48,2.11v0c.67-.53,1.42-1.05,2.17-1.6l2.61-1.79,1.26,1.22-6.72,4.09Zm3.84,3.4,4.82-5.9,1.33,1.08-4.81,5.91Zm6.57,5-3.85-2.78,4.45-6.18,1.39,1-3.61,5L59.38,175Zm9,.79a3.89,3.89,0,0,1-2.64,2,5.49,5.49,0,0,1-3.54-1A14,14,0,0,1,59.74,177l3.79-6.43a15.91,15.91,0,0,1,2.08,1,4.93,4.93,0,0,1,2.28,2.3A3.32,3.32,0,0,1,67.54,177Zm10.72,8.79.45-3.31c.11-.78.22-1.49.42-2.34h0c-.41.77-.76,1.41-1.18,2.08l-1.74,2.87-1.79-.61.75-7.79,1.74.59-.46,3.15c-.14.92-.31,1.91-.44,2.67h0c.38-.74.85-1.55,1.33-2.39L79,178l1.73.59-.46,3.23c-.13.91-.27,1.71-.44,2.55h0c.38-.77.83-1.56,1.28-2.37l1.59-2.74,1.66.56L80,186.39Zm4.93,1.43,1.8-7.4,1.67.4-1.8,7.4Zm8.06,1.65L86.58,188l1.35-7.49,1.69.31-1.09,6.06,3,.54Zm7-.2a5.44,5.44,0,0,1-3.59.67,15.8,15.8,0,0,1-1.94-.28l.66-7.44a15.25,15.25,0,0,1,2.32,0,5,5,0,0,1,3,1.09,3.38,3.38,0,0,1,1,3A3.86,3.86,0,0,1,98.2,188.67Zm7.54,1-4.85,0,.06-7.61,4.69,0v1.41l-3,0v1.58l2.8,0v1.4l-2.81,0v1.81l3.13,0Zm5.59-.45a9.32,9.32,0,0,1-.68-1.72c-.29-.94-.64-1.16-1.35-1.1l-.51,0,.26,3-1.7.15-.65-7.48a14.64,14.64,0,0,1,2.27-.36,3.9,3.9,0,0,1,2.51.38,1.93,1.93,0,0,1,.84,1.54,2,2,0,0,1-1.17,2v0a1.89,1.89,0,0,1,1.14,1.31c.31.85.62,1.82.79,2.1Zm15-3.07-1.54-3c-.35-.69-.67-1.34-1-2.15h0c.12.86.2,1.59.24,2.38l.23,3.34-1.81.53-3.88-6.79,1.77-.52,1.43,2.84c.42.83.85,1.73,1.19,2.43h0c-.11-.82-.2-1.75-.28-2.72l-.26-3.16,1.76-.51,1.49,2.9c.41.81.76,1.56,1.11,2.34h0c-.13-.84-.22-1.74-.33-2.67l-.27-3.15,1.67-.49.26,7.85Zm4.86-1.68-2.79-7.08,1.6-.63,2.79,7.08Zm3.24-1.29-3.2-6.91,1.55-.72,2.6,5.59,2.75-1.27.6,1.31Zm9.89-6.18a5.52,5.52,0,0,1-2.56,2.62,16.11,16.11,0,0,1-1.75.89l-3.74-6.47a14.73,14.73,0,0,1,1.92-1.31,4.92,4.92,0,0,1,3.11-.86,3.38,3.38,0,0,1,2.56,1.83A3.92,3.92,0,0,1,144.33,177Zm2.81-.74-4.41-6.2,3.82-2.72.82,1.15L145,170.24l.91,1.29,2.29-1.62.81,1.14-2.29,1.62,1.05,1.47,2.55-1.81.82,1.15Zm6.67-4.88a5,5,0,0,1-1.95,1l-.64-1.31a4.39,4.39,0,0,0,1.76-.86c.61-.51.72-1,.4-1.41s-.76-.34-1.66,0c-1.26.46-2.35.47-3.06-.38-.84-1-.63-2.45.74-3.6a4.49,4.49,0,0,1,1.73-1l.59,1.31a3.36,3.36,0,0,0-1.44.74c-.57.48-.62,1-.38,1.27s.77.27,1.77-.09c1.35-.48,2.28-.34,3,.48C155.46,168.62,155.41,170.07,153.81,171.41Zm4.47-4.14-4.34-4.39-1.46,1.45-1-1,4.16-4.12,1,1-1.48,1.46,4.34,4.39Zm9.83-12.57-3.67-.9A80.74,80.74,0,0,0,173,66l4.38,1.08a84.18,84.18,0,0,1-9.28,87.64Z"/><path class="cls-1" d="M135.22,85.72q-1.6-.56-3.33-1c.19-.77.36-1.53.52-2.27,2.51-12.22.87-22.06-4.75-25.3-5.39-3.11-14.2.13-23.1,7.88-.86.74-1.71,1.53-2.57,2.36-.57-.55-1.14-1.08-1.71-1.58C91,57.48,81.6,54,76,57.24c-5.38,3.11-7,12.36-4.71,23.94.22,1.12.47,2.26.76,3.42-1.32.38-2.6.78-3.82,1.21-10.94,3.81-17.92,9.78-17.92,16,0,6.4,7.5,12.82,18.89,16.71.89.31,1.83.6,2.79.88-.31,1.25-.59,2.48-.81,3.68-2.16,11.38-.48,20.41,4.89,23.51,5.55,3.2,14.85-.09,23.92-8,.71-.63,1.43-1.29,2.15-2,.93.9,1.87,1.75,2.79,2.55,8.78,7.56,17.45,10.61,22.81,7.5,5.54-3.21,7.34-12.91,5-24.72-.18-.9-.39-1.82-.62-2.76q1-.28,1.92-.6c11.84-3.92,19.54-10.26,19.54-16.75,0-6.22-7.21-12.23-18.36-16.07Zm-2.57,28.63c-.56.19-1.14.37-1.73.55a105.46,105.46,0,0,0-5.23-13.09,103.49,103.49,0,0,0,5-12.89c1.06.3,2.08.63,3.07,1,9.56,3.29,15.39,8.15,15.39,11.9,0,4-6.3,9.18-16.52,12.56Zm-4.24,8.41a37.3,37.3,0,0,1,.49,13.63c-.61,3.32-1.85,5.53-3.38,6.41-3.25,1.89-10.21-.56-17.72-7-.86-.74-1.73-1.53-2.6-2.37a103.47,103.47,0,0,0,8.66-11,104,104,0,0,0,14-2.16c.21.85.4,1.68.56,2.5Zm-42.9,19.72c-3.18,1.12-5.71,1.15-7.24.27-3.26-1.88-4.62-9.13-2.77-18.86.21-1.12.47-2.26.76-3.43a103.72,103.72,0,0,0,13.91,2,107.78,107.78,0,0,0,8.87,11c-.66.63-1.31,1.24-2,1.81a37.33,37.33,0,0,1-11.56,7.24Zm-14.9-28.15a37.39,37.39,0,0,1-12-6.4c-2.56-2.19-3.86-4.37-3.86-6.14,0-3.76,5.61-8.56,15-11.82,1.13-.39,2.32-.77,3.56-1.12a104.73,104.73,0,0,0,5,13.05,108.26,108.26,0,0,0-5.1,13.23c-.88-.26-1.73-.52-2.55-.8Zm5-34c-1.94-9.91-.66-17.4,2.59-19.28,3.45-2,11.09.86,19.15,8,.51.45,1,.93,1.55,1.43a105.93,105.93,0,0,0-8.8,10.88,109,109,0,0,0-13.78,2.15c-.27-1.08-.51-2.15-.71-3.19Zm44.55,11q-1.53-2.66-3.14-5.17c3.29.42,6.45,1,9.41,1.65a93.47,93.47,0,0,1-3.3,8.89q-1.41-2.67-3-5.37ZM102,73.64A93.76,93.76,0,0,1,108.07,81c-2-.1-4.07-.15-6.13-.15s-4.07,0-6.08.14c2-2.64,4.06-5.1,6.13-7.33ZM83.71,91.37Q82.17,94,80.79,96.71c-1.28-3-2.38-6-3.28-8.94,2.95-.66,6.09-1.2,9.36-1.61-1.08,1.69-2.14,3.43-3.16,5.21ZM87,117.73a94.42,94.42,0,0,1-9.52-1.53c.91-2.94,2-6,3.35-9.12.92,1.79,1.9,3.57,2.92,5.35h0q1.57,2.71,3.25,5.3Zm15.14,12.52c-2.09-2.26-4.17-4.75-6.21-7.44q3,.12,6,.12t6.24-.14a93.91,93.91,0,0,1-6.07,7.46Zm21.06-23.32a92.49,92.49,0,0,1,3.47,9.08,95.15,95.15,0,0,1-9.64,1.64q1.62-2.55,3.18-5.25t3-5.47Zm-6.82,3.26c-1.61,2.8-3.27,5.48-4.95,8-3.07.22-6.23.33-9.46.33s-6.34-.1-9.35-.3c-1.75-2.55-3.44-5.23-5-8h0q-2.4-4.16-4.4-8.32c1.33-2.78,2.8-5.57,4.39-8.33h0c1.59-2.77,3.27-5.43,5-8,3.07-.23,6.22-.36,9.4-.36h0c3.2,0,6.35.13,9.42.36,1.71,2.52,3.38,5.18,5,8s3.11,5.57,4.45,8.28c-1.34,2.77-2.82,5.57-4.44,8.36Zm9.11-49.27c3.45,2,4.8,10,2.63,20.59-.14.67-.3,1.36-.47,2a105.9,105.9,0,0,0-13.81-2.18,105.33,105.33,0,0,0-8.73-10.9c.8-.76,1.59-1.49,2.38-2.17,7.62-6.64,14.75-9.26,18-7.39Z"/><path class="cls-1" d="M102,93.74A8.25,8.25,0,1,1,93.79,102,8.25,8.25,0,0,1,102,93.74"/></g></svg>